<?xml version="1.0" encoding="UTF-8"?>
<!DOCTYPE svg PUBLIC "-//W3C//DTD SVG 1.1//EN" "http://www.w3.org/Graphics/SVG/1.1/DTD/svg11.dtd">
<svg xmlns="http://www.w3.org/2000/svg" version="1.1" width="2000px" height="2000px" style="shape-rendering:geometricPrecision; text-rendering:geometricPrecision; image-rendering:optimizeQuality; fill-rule:evenodd; clip-rule:evenodd" xmlns:xlink="http://www.w3.org/1999/xlink">
<g><path style="opacity:1" fill="#262629" d="M 252.5,-0.5 C 739.5,-0.5 1226.5,-0.5 1713.5,-0.5C 1808.5,55.0019 1903.83,110.002 1999.5,164.5C 1999.5,629.5 1999.5,1094.5 1999.5,1559.5C 1977.8,1595.74 1956.63,1632.41 1936,1669.5C 1935,1670.5 1934,1671.5 1933,1672.5C 1870.77,1781.88 1807.94,1890.88 1744.5,1999.5C 1258.5,1999.5 772.5,1999.5 286.5,1999.5C 191.032,1943.93 95.3656,1888.6 -0.5,1833.5C -0.5,1368.5 -0.5,903.5 -0.5,438.5C 84.2364,292.423 168.57,146.089 252.5,-0.5 Z"/></g>
<g><path style="opacity:1" fill="#f3f3f4" d="M 1108.5,1636.5 C 1108.5,1625.83 1108.5,1615.17 1108.5,1604.5C 1165.34,1604.83 1222,1604.5 1278.5,1603.5C 1240.36,1484.42 1202.03,1365.42 1163.5,1246.5C 1090.17,1245.83 1016.67,1245.5 943,1245.5C 869.164,1245.5 795.664,1246.17 722.5,1247.5C 680.971,1366.09 639.638,1484.75 598.5,1603.5C 656.998,1604.5 715.664,1604.83 774.5,1604.5C 774.5,1615.17 774.5,1625.83 774.5,1636.5C 652.5,1636.5 530.5,1636.5 408.5,1636.5C 408.5,1625.83 408.5,1615.17 408.5,1604.5C 459.336,1604.83 510.003,1604.5 560.5,1603.5C 706.23,1189.98 851.563,776.311 996.5,362.5C 1008.17,362.333 1019.84,362.5 1031.5,363C 1174.8,775.765 1317.96,1188.6 1461,1601.5C 1504.28,1603.49 1547.78,1604.16 1591.5,1603.5C 1591.5,1614.5 1591.5,1625.5 1591.5,1636.5C 1430.5,1636.5 1269.5,1636.5 1108.5,1636.5 Z"/></g>
<g><path style="opacity:1" fill="#27272a" d="M 1151.5,1210.5 C 1082.5,1211.83 1013.17,1212.5 943.5,1212.5C 873.999,1212.5 804.666,1212.17 735.5,1211.5C 806.908,1004.61 878.908,797.943 951.5,591.5C 1018.97,797.568 1085.63,1003.9 1151.5,1210.5 Z"/></g>
<g><path style="opacity:1" fill="#737375" d="M 1151.5,1210.5 C 1152.4,1211.21 1152.74,1212.21 1152.5,1213.5C 1013.17,1213.83 873.832,1213.5 734.5,1212.5C 734.624,1211.89 734.957,1211.56 735.5,1211.5C 804.666,1212.17 873.999,1212.5 943.5,1212.5C 1013.17,1212.5 1082.5,1211.83 1151.5,1210.5 Z"/></g>
<g><path style="opacity:1" fill="#4e4e50" d="M 1163.5,1246.5 C 1016.43,1246.17 869.43,1246.5 722.5,1247.5C 795.664,1246.17 869.164,1245.5 943,1245.5C 1016.67,1245.5 1090.17,1245.83 1163.5,1246.5 Z"/></g>
<g><path style="opacity:1" fill="#89898b" d="M 560.5,1603.5 C 510.003,1604.5 459.336,1604.83 408.5,1604.5C 408.5,1615.17 408.5,1625.83 408.5,1636.5C 407.505,1625.68 407.172,1614.68 407.5,1603.5C 458.5,1603.5 509.5,1603.5 560.5,1603.5 Z"/></g>
<g><path style="opacity:1" fill="#8a8a8c" d="M 598.5,1603.5 C 657.5,1603.5 716.5,1603.5 775.5,1603.5C 775.828,1614.68 775.495,1625.68 774.5,1636.5C 774.5,1625.83 774.5,1615.17 774.5,1604.5C 715.664,1604.83 656.998,1604.5 598.5,1603.5 Z"/></g>
<g><path style="opacity:1" fill="#8a8a8c" d="M 1278.5,1603.5 C 1222,1604.5 1165.34,1604.83 1108.5,1604.5C 1108.5,1615.17 1108.5,1625.83 1108.5,1636.5C 1107.51,1625.68 1107.17,1614.68 1107.5,1603.5C 1164.5,1603.5 1221.5,1603.5 1278.5,1603.5 Z"/></g>
</svg>
